<svg width="1280" height="300" viewBox="0 0 1280 300" fill="none" xmlns="http://www.w3.org/2000/svg">
  <rect width="1280" height="300" fill="#F7FAFC"/>
  <text x="40" y="42" font-size="26" font-family="Arial, 'Microsoft YaHei', sans-serif" fill="#1F2937" font-weight="700">项目流程总览 / Project Workflow Overview</text>

  <rect x="40" y="90" rx="14" ry="14" width="220" height="120" fill="#DBEAFE" stroke="#2563EB" stroke-width="2"/>
  <text x="150" y="138" text-anchor="middle" font-size="20" font-family="Arial, 'Microsoft YaHei', sans-serif" fill="#1E3A8A" font-weight="700">数据预处理</text>
  <text x="150" y="166" text-anchor="middle" font-size="15" font-family="Arial, 'Microsoft YaHei', sans-serif" fill="#1E40AF">Preprocessing</text>

  <rect x="320" y="90" rx="14" ry="14" width="220" height="120" fill="#DCFCE7" stroke="#16A34A" stroke-width="2"/>
  <text x="430" y="138" text-anchor="middle" font-size="20" font-family="Arial, 'Microsoft YaHei', sans-serif" fill="#14532D" font-weight="700">地图匹配</text>
  <text x="430" y="166" text-anchor="middle" font-size="15" font-family="Arial, 'Microsoft YaHei', sans-serif" fill="#166534">HMM / trendHMM</text>

  <rect x="600" y="90" rx="14" ry="14" width="220" height="120" fill="#FEF3C7" stroke="#D97706" stroke-width="2"/>
  <text x="710" y="138" text-anchor="middle" font-size="20" font-family="Arial, 'Microsoft YaHei', sans-serif" fill="#92400E" font-weight="700">批量实验</text>
  <text x="710" y="166" text-anchor="middle" font-size="15" font-family="Arial, 'Microsoft YaHei', sans-serif" fill="#B45309">Noise + Downsample</text>

  <rect x="880" y="90" rx="14" ry="14" width="220" height="120" fill="#F3E8FF" stroke="#7C3AED" stroke-width="2"/>
  <text x="990" y="138" text-anchor="middle" font-size="20" font-family="Arial, 'Microsoft YaHei', sans-serif" fill="#581C87" font-weight="700">评估与可视化</text>
  <text x="990" y="166" text-anchor="middle" font-size="15" font-family="Arial, 'Microsoft YaHei', sans-serif" fill="#6D28D9">Metrics + Blog</text>

  <path d="M270 150 L305 150" stroke="#374151" stroke-width="3"/>
  <path d="M305 150 L297 144" stroke="#374151" stroke-width="3"/>
  <path d="M305 150 L297 156" stroke="#374151" stroke-width="3"/>

  <path d="M550 150 L585 150" stroke="#374151" stroke-width="3"/>
  <path d="M585 150 L577 144" stroke="#374151" stroke-width="3"/>
  <path d="M585 150 L577 156" stroke="#374151" stroke-width="3"/>

  <path d="M830 150 L865 150" stroke="#374151" stroke-width="3"/>
  <path d="M865 150 L857 144" stroke="#374151" stroke-width="3"/>
  <path d="M865 150 L857 156" stroke="#374151" stroke-width="3"/>

  <text x="40" y="252" font-size="14" font-family="Arial, 'Microsoft YaHei', sans-serif" fill="#4B5563">输入: OSM / RTKLIB / GIOW  |  输出: 实验结果 + 指标表 + 博客展示页</text>
</svg>
